{"asset":{"generator":"Khronos glTF Spline I/O v0.0.1","version":"2.0"},"scenes":[{"nodes":[0]}],"nodes":[{"name":"Untitled","children":[1,2]},{"name":"Dodecahedron","matrix":[0.7695828303823053,-0.004582468729064988,-0.6385305538195544,0,0.10815781335455812,-0.9845897812370632,0.13742216012678848,0,0.6293203910498374,0.17481980340882225,0.7572277608124127,0,-22.73542419573758,24.811805929212312,208.6587471315039,1],"mesh":0},{"name":"Default Camera","camera":0,"translation":[0,6.123233995736766e-14,1000],"rotation":[-3.061616997868383e-17,0,0,1],"children":[3]},{"name":"Default Directional Light","translation":[850000,1300000,1000000],"rotation":[-0.45895513091666534,0.1367267597249462,-0.25064115022945466,0.8413352451859125],"extensions":{"KHR_lights_punctual":{"light":0}}}],"cameras":[{"type":"orthographic","orthographic":{"xmag":1920,"ymag":979,"zfar":50000,"znear":-50000}}],"meshes":[{"primitives":[{"attributes":{"POSITION":0,"NORMAL":1,"TEXCOORD_0":2}}]}],"buffers":[{"uri":"data:application/octet-stream;base64,","byteLength":176256}],"bufferViews":[{"buffer":0,"byteOffset":0,"byteLength":66096,"target":34962},{"buffer":0,"byteOffset":66096,"byteLength":66096,"target":34962},{"buffer":0,"byteOffset":132192,"byteLength":44064,"target":34962}],"accessors":[{"bufferView":0,"byteOffset":0,"componentType":5126,"count":5508,"type":"VEC3","min":[-324.8585510253906,-322.5836181640625,-324.8585510253906],"max":[324.8585510253906,322.5836181640625,324.8585510253906]},{"bufferView":1,"byteOffset":0,"componentType":5126,"count":5508,"type":"VEC3","min":[-0.9963997006416321,-0.9964496493339539,-0.996349036693573],"max":[0.9963997006416321,0.9964496493339539,0.996349036693573]},{"bufferView":2,"byteOffset":0,"componentType":5126,"count":5508,"type":"VEC2","min":[0,0.10031085461378098],"max":[1.1080245971679688,0.8996891379356384]}],"extensions":{"KHR_lights_punctual":{"lights":[{"type":"directional","name":"Default Directional Light","color":[1,1,1],"intensity":0.75}]}},"extensionsUsed":["KHR_lights_punctual"]}